<?xml version="1.0" encoding="utf-8"?>
<!-- Generator: Adobe Illustrator 23.0.1, SVG Export Plug-In . SVG Version: 6.00 Build 0)  -->
<svg version="1.1" id="Layer_1" xmlns="http://www.w3.org/2000/svg" xmlns:xlink="http://www.w3.org/1999/xlink" x="0px" y="0px"
	 viewBox="0 0 24 24" style="enable-background:new 0 0 24 24;" xml:space="preserve">
<style type="text/css">
	.st0{fill:#231F20;}
</style>
<path class="st0" d="M16.9,5.6l1.4,1.4c0.2,0.2,0.2,0.5,0,0.7L7.8,18.4c-0.2,0.2-0.5,0.2-0.7,0l-1.4-1.4c-0.2-0.2-0.2-0.5,0-0.7
	L16.2,5.6C16.4,5.4,16.8,5.4,16.9,5.6z"/>
<path class="st0" d="M18.4,16.9l-1.4,1.4c-0.2,0.2-0.5,0.2-0.7,0L5.6,7.8c-0.2-0.2-0.2-0.5,0-0.7l1.4-1.4c0.2-0.2,0.5-0.2,0.7,0
	l10.6,10.6C18.6,16.4,18.6,16.8,18.4,16.9z"/>
</svg>
