<?xml version="1.0" encoding="utf-8"?>
<!-- Generator: Adobe Illustrator 23.0.1, SVG Export Plug-In . SVG Version: 6.00 Build 0)  -->
<svg version="1.1" id="Layer_1" xmlns="http://www.w3.org/2000/svg" xmlns:xlink="http://www.w3.org/1999/xlink" x="0px" y="0px"
	 viewBox="0 0 24 24" style="enable-background:new 0 0 24 24;" xml:space="preserve">
<style type="text/css">
	.st0{fill:#231F20;}
</style>
<path class="st0" d="M11.6,3.7L9.5,7.2C9.3,7.6,9.5,8,9.9,8h4.2c0.4,0,0.6-0.4,0.4-0.8l-2.1-3.5C12.2,3.4,11.8,3.4,11.6,3.7z"/>
<path class="st0" d="M12.4,20.3l2.1-3.5c0.2-0.3,0-0.8-0.4-0.8H9.9c-0.4,0-0.6,0.4-0.4,0.8l2.1,3.5C11.8,20.6,12.2,20.6,12.4,20.3z"
	/>
<path class="st0" d="M20.3,11.6l-3.5-2.1c-0.3-0.2-0.8,0-0.8,0.4v4.2c0,0.4,0.4,0.6,0.8,0.4l3.5-2.1C20.6,12.2,20.6,11.8,20.3,11.6z
	"/>
<path class="st0" d="M3.7,12.4l3.5,2.1c0.3,0.2,0.8,0,0.8-0.4V9.9c0-0.4-0.4-0.6-0.8-0.4l-3.5,2.1C3.4,11.8,3.4,12.2,3.7,12.4z"/>
</svg>
